<!DOCTYPE svg PUBLIC "-//W3C//DTD SVG 1.1//EN" "http://www.w3.org/Graphics/SVG/1.1/DTD/svg11.dtd">

<!-- Uploaded to: SVG Repo, www.svgrepo.com, Transformed by: SVG Repo Mixer Tools -->
<svg fill='#ffc83d79' width="24px" viewBox="0 0 32 32" data-name="Layer 9" id="Layer_9" xmlns="http://www.w3.org/2000/svg" stroke="#ffc83d79">

<g id="SVGRepo_bgCarrier" stroke-width="0"/>

<g id="SVGRepo_tracerCarrier" stroke-linecap="round" stroke-linejoin="round"/>

<g id="SVGRepo_iconCarrier">

<title/>

<path d="M16,1.5A14.5,14.5,0,1,0,30.5,16,14.52,14.52,0,0,0,16,1.5Zm0,28A13.5,13.5,0,1,1,29.5,16,13.52,13.52,0,0,1,16,29.5Z"/>

<ellipse cx="4.06" cy="16" rx="0.94" ry="0.93"/>

<ellipse cx="16" cy="4.07" rx="0.94" ry="0.93"/>

<ellipse cx="27.94" cy="16" rx="0.94" ry="0.93"/>

<ellipse cx="16" cy="27.93" rx="0.94" ry="0.93"/>

<path d="M16.5,15.77V6.86a0.5,0.5,0,0,0-1,0V16a0.5,0.5,0,0,0,.18.38l5,4.21a0.5,0.5,0,0,0,.64-0.77Z"/>

</g>

</svg>